<svg fill="rgba(255, 255, 255, 0.819)" stroke="black" stroke-width="10"  xmlns="http://www.w3.org/2000/svg" viewBox="0 0 356.85 355.83"><g id="Layer_3" data-name="Layer 3"><path d="M815.77,658.94c54.81-42.15,71.93-97,76-160.17,5.88-90.94,79-158,168.81-161.92,21.87-1,33,3.85,32.2,28.92-1.59,51.63.28,103.36-.92,155-3,127.25-145.31,211.35-257.47,152.5C828.86,670.36,824.28,665.57,815.77,658.94Z" transform="translate(-735.99 -336.6)"/><path d="M736.11,442.7c0-28.1.31-56.21-.12-84.3-.23-15.56,6.87-21.86,22.08-21.8,52.42.2,97.42,18.28,132.21,57.52,6,6.79,6.48,21.57,4.62,31.76-5.83,31.91-16.72,63.06-20.6,95.11-5.42,44.74-20.87,82.81-54.57,113.52-15.42,14.06-26.18,12.57-39.29-3.18-26.73-32.11-42.55-68.17-43.87-110-.84-26.2-.16-52.45-.16-78.67Z" transform="translate(-735.99 -336.6)"/></g></svg>